<mxfile host="app.diagrams.net" agent="Mozilla/5.0 (Windows NT 10.0; Win64; x64) AppleWebKit/537.36 (KHTML, like Gecko) Chrome/131.0.0.0 Safari/537.36" version="25.0.3">
  <diagram name="Page-1" id="eR15SlLOUBlXQCZZkrx0">
    <mxGraphModel dx="1434" dy="746" grid="1" gridSize="10" guides="1" tooltips="1" connect="1" arrows="1" fold="1" page="1" pageScale="1" pageWidth="850" pageHeight="1100" math="0" shadow="0">
      <root>
        <mxCell id="0" />
        <mxCell id="1" parent="0" />
        <mxCell id="N7YWwJol1U6qEVekfHtl-6" style="edgeStyle=orthogonalEdgeStyle;rounded=0;orthogonalLoop=1;jettySize=auto;html=1;entryX=0.5;entryY=0;entryDx=0;entryDy=0;" edge="1" parent="1" source="N7YWwJol1U6qEVekfHtl-1" target="N7YWwJol1U6qEVekfHtl-3">
          <mxGeometry relative="1" as="geometry" />
        </mxCell>
        <mxCell id="N7YWwJol1U6qEVekfHtl-1" value="&lt;font style=&quot;font-size: 24px;&quot;&gt;start&lt;/font&gt;" style="strokeWidth=2;html=1;shape=mxgraph.flowchart.start_1;whiteSpace=wrap;" vertex="1" parent="1">
          <mxGeometry x="375" y="40" width="100" height="60" as="geometry" />
        </mxCell>
        <mxCell id="N7YWwJol1U6qEVekfHtl-2" value="&lt;font style=&quot;font-size: 24px;&quot;&gt;end&lt;/font&gt;" style="strokeWidth=2;html=1;shape=mxgraph.flowchart.start_1;whiteSpace=wrap;" vertex="1" parent="1">
          <mxGeometry x="375" y="480" width="100" height="60" as="geometry" />
        </mxCell>
        <mxCell id="N7YWwJol1U6qEVekfHtl-7" style="edgeStyle=orthogonalEdgeStyle;rounded=0;orthogonalLoop=1;jettySize=auto;html=1;entryX=0.5;entryY=0;entryDx=0;entryDy=0;" edge="1" parent="1" source="N7YWwJol1U6qEVekfHtl-3" target="N7YWwJol1U6qEVekfHtl-4">
          <mxGeometry relative="1" as="geometry" />
        </mxCell>
        <mxCell id="N7YWwJol1U6qEVekfHtl-3" value="input height, width" style="shape=parallelogram;perimeter=parallelogramPerimeter;whiteSpace=wrap;html=1;fixedSize=1;" vertex="1" parent="1">
          <mxGeometry x="288" y="140" width="275" height="50" as="geometry" />
        </mxCell>
        <mxCell id="N7YWwJol1U6qEVekfHtl-8" style="edgeStyle=orthogonalEdgeStyle;rounded=0;orthogonalLoop=1;jettySize=auto;html=1;" edge="1" parent="1" source="N7YWwJol1U6qEVekfHtl-4" target="N7YWwJol1U6qEVekfHtl-5">
          <mxGeometry relative="1" as="geometry" />
        </mxCell>
        <mxCell id="N7YWwJol1U6qEVekfHtl-4" value="area = (height * width) / 2" style="rounded=1;whiteSpace=wrap;html=1;absoluteArcSize=1;arcSize=14;strokeWidth=2;" vertex="1" parent="1">
          <mxGeometry x="335" y="260" width="180" height="40" as="geometry" />
        </mxCell>
        <mxCell id="N7YWwJol1U6qEVekfHtl-5" value="output&lt;br&gt;&quot;Triangle Area : &quot;, area" style="shape=parallelogram;perimeter=parallelogramPerimeter;whiteSpace=wrap;html=1;fixedSize=1;" vertex="1" parent="1">
          <mxGeometry x="288" y="370" width="275" height="50" as="geometry" />
        </mxCell>
        <mxCell id="N7YWwJol1U6qEVekfHtl-10" style="edgeStyle=orthogonalEdgeStyle;rounded=0;orthogonalLoop=1;jettySize=auto;html=1;entryX=0.5;entryY=0;entryDx=0;entryDy=0;entryPerimeter=0;" edge="1" parent="1" source="N7YWwJol1U6qEVekfHtl-5" target="N7YWwJol1U6qEVekfHtl-2">
          <mxGeometry relative="1" as="geometry" />
        </mxCell>
      </root>
    </mxGraphModel>
  </diagram>
</mxfile>
